<svg width="684" height="439" xmlns="http://www.w3.org/2000/svg" xmlns:xlink="http://www.w3.org/1999/xlink" version="1.1" baseProfile="full" viewBox="0 0 684 439">
<rect width="684" height="439" x="0" y="0" id="0" fill="none"></rect>
<polyline points="368.6 71.9 371.3 57.1 632 57.1" fill="none" stroke="#5470c6"></polyline>
<polyline points="416.9 89.5 424.3 88.2 632 88.2" fill="none" stroke="#91cc75"></polyline>
<polyline points="455 120.8 466.2 119.3 632 119.3" fill="none" stroke="#fac858"></polyline>
<polyline points="480.2 161.2 494 155.4 632 155.4" fill="none" stroke="#ee6666"></polyline>
<polyline points="491.4 206.1 506.3 204.7 632 204.7" fill="none" stroke="#73c0de"></polyline>
<polyline points="488.5 251.7 503.2 254.9 632 254.9" fill="none" stroke="#3ba272"></polyline>
<polyline points="472.3 293.9 485.3 301.3 632 301.3" fill="none" stroke="#fc8452"></polyline>
<polyline points="445.1 328.4 455.4 339.3 632 339.3" fill="none" stroke="#9a60b4"></polyline>
<polyline points="410.2 353.1 417 370.4 632 370.4" fill="none" stroke="#ea7ccc"></polyline>
<polyline points="371.1 366.6 374 401.5 632 401.5" fill="none" stroke="#5470c6"></polyline>
<polyline points="331.4 369.1 330.4 423.5 52 423.5" fill="none" stroke="#91cc75"></polyline>
<polyline points="293.1 361.3 288.2 392.3 52 392.3" fill="none" stroke="#fac858"></polyline>
<polyline points="258.5 344.1 250.1 361.2 52 361.2" fill="none" stroke="#ee6666"></polyline>
<polyline points="229.9 319.2 218.7 330.1 52 330.1" fill="none" stroke="#73c0de"></polyline>
<polyline points="208.8 288.5 195.5 299 52 299" fill="none" stroke="#3ba272"></polyline>
<polyline points="196.3 255.3 181.8 267.9 52 267.9" fill="none" stroke="#fc8452"></polyline>
<polyline points="192 222.6 177 236.8 52 236.8" fill="none" stroke="#9a60b4"></polyline>
<polyline points="194.6 191.7 179.8 205.7 52 205.7" fill="none" stroke="#ea7ccc"></polyline>
<polyline points="203.1 163 189.2 174.6 52 174.6" fill="none" stroke="#5470c6"></polyline>
<polyline points="216.4 137.5 203.9 143.5 52 143.5" fill="none" stroke="#91cc75"></polyline>
<polyline points="233.3 116.1 222.5 112.4 52 112.4" fill="none" stroke="#fac858"></polyline>
<polyline points="253.3 98.5 244.4 81.3 52 81.3" fill="none" stroke="#ee6666"></polyline>
<polyline points="301.7 75 297.6 50.2 52 50.2" fill="none" stroke="#73c0de"></polyline>
<path d="M342 69.5A150 150 0 0 1 394.3519 78.9323L376.9012 125.7882A100 100 0 0 0 342 119.5Z" fill="rgb(84,112,198)" stroke="#fff" stroke-linejoin="round"></path>
<path d="M394.3519 78.9323A150 150 0 0 1 437.2953 103.6604L405.5302 142.2736A100 100 0 0 0 376.9012 125.7882Z" fill="rgb(145,204,117)" stroke="#fff" stroke-linejoin="round"></path>
<path d="M437.2953 103.6604A150 150 0 0 1 469.5691 140.5942L427.0461 166.8961A100 100 0 0 0 405.5302 142.2736Z" fill="#fac858" stroke="#fff" stroke-linejoin="round"></path>
<path d="M469.5691 140.5942A150 150 0 0 1 487.5587 183.2693L439.0391 195.3462A100 100 0 0 0 427.0461 166.8961Z" fill="#ee6666" stroke="#fff" stroke-linejoin="round"></path>
<path d="M487.5587 183.2693A150 150 0 0 1 491.6865 229.1931L441.791 225.9621A100 100 0 0 0 439.0391 195.3462Z" fill="#73c0de" stroke="#fff" stroke-linejoin="round"></path>
<path d="M491.6865 229.1931A150 150 0 0 1 481.9677 273.4356L435.3118 255.4571A100 100 0 0 0 441.791 225.9621Z" fill="#3ba272" stroke="#fff" stroke-linejoin="round"></path>
<path d="M481.9677 273.4356A150 150 0 0 1 459.6122 312.5987L420.4082 281.5658A100 100 0 0 0 435.3118 255.4571Z" fill="#fc8452" stroke="#fff" stroke-linejoin="round"></path>
<path d="M459.6122 312.5987A150 150 0 0 1 428.482 342.0596L399.6547 301.2064A100 100 0 0 0 420.4082 281.5658Z" fill="#9a60b4" stroke="#fff" stroke-linejoin="round"></path>
<path d="M428.482 342.0596A150 150 0 0 1 390.5823 361.4146L374.3882 314.1098A100 100 0 0 0 399.6547 301.2064Z" fill="#ea7ccc" stroke="#fff" stroke-linejoin="round"></path>
<path d="M390.5823 361.4146A150 150 0 0 1 351.1297 369.2219L348.0865 319.3146A100 100 0 0 0 374.3882 314.1098Z" fill="#5470c6" stroke="#fff" stroke-linejoin="round"></path>
<path d="M351.1297 369.2219A150 150 0 0 1 311.9252 366.4541L321.9502 317.4694A100 100 0 0 0 348.0865 319.3146Z" fill="rgb(145,204,117)" stroke="#fff" stroke-linejoin="round"></path>
<path d="M311.9252 366.4541A150 150 0 0 1 275.0609 353.7354L297.3739 308.9903A100 100 0 0 0 321.9502 317.4694Z" fill="rgb(250,200,88)" stroke="#fff" stroke-linejoin="round"></path>
<path d="M275.0609 353.7354A150 150 0 0 1 243.2606 332.4183L276.1737 294.7788A100 100 0 0 0 297.3739 308.9903Z" fill="#ee6666" stroke="#fff" stroke-linejoin="round"></path>
<path d="M243.2606 332.4183A150 150 0 0 1 218.2973 304.3389L259.5315 276.0593A100 100 0 0 0 276.1737 294.7788Z" fill="#73c0de" stroke="#fff" stroke-linejoin="round"></path>
<path d="M218.2973 304.3389A150 150 0 0 1 201.3786 271.7076L248.2524 254.305A100 100 0 0 0 259.5315 276.0593Z" fill="#3ba272" stroke="#fff" stroke-linejoin="round"></path>
<path d="M201.3786 271.7076A150 150 0 0 1 193.2068 238.4894L242.8046 232.1596A100 100 0 0 0 248.2524 254.305Z" fill="#fc8452" stroke="#fff" stroke-linejoin="round"></path>
<path d="M193.2068 238.4894A150 150 0 0 1 192.5528 206.634L242.3685 210.9227A100 100 0 0 0 242.8046 232.1596Z" fill="#9a60b4" stroke="#fff" stroke-linejoin="round"></path>
<path d="M192.5528 206.634A150 150 0 0 1 198.109 177.1282L246.0726 191.2521A100 100 0 0 0 242.3685 210.9227Z" fill="#ea7ccc" stroke="#fff" stroke-linejoin="round"></path>
<path d="M198.109 177.1282A150 150 0 0 1 209.3821 149.4108L253.5881 172.7739A100 100 0 0 0 246.0726 191.2521Z" fill="#5470c6" stroke="#fff" stroke-linejoin="round"></path>
<path d="M209.3821 149.4108A150 150 0 0 1 224.5153 126.2404L263.6769 157.327A100 100 0 0 0 253.5881 172.7739Z" fill="#91cc75" stroke="#fff" stroke-linejoin="round"></path>
<path d="M224.5153 126.2404A150 150 0 0 1 243.029 106.7847L276.0193 144.3565A100 100 0 0 0 263.6769 157.327Z" fill="#fac858" stroke="#fff" stroke-linejoin="round"></path>
<path d="M243.029 106.7847A150 150 0 0 1 264.2761 91.2074L290.184 133.9716A100 100 0 0 0 276.0193 144.3565Z" fill="rgb(238,102,102)" stroke="#fff" stroke-linejoin="round"></path>
<path d="M264.276 91.2074A150 150 0 0 1 342 69.5L342 119.5A100 100 0 0 0 290.184 133.9716Z" fill="#73c0de" stroke="#fff" stroke-linejoin="round"></path>
<path d="M-36 -12l36 0l0 24l-36 0Z" transform="translate(632 57.1146)" fill="none"></path>
<text dominant-baseline="central" text-anchor="end" style="font: normal normal 12px Microsoft YaHei" y="-6" transform="translate(632 57.1146)" fill="#333" stroke="rgb(255,255,255)" stroke-width="2" paint-order="stroke" stroke-miterlimit="2">肿瘤科</text>
<text dominant-baseline="central" text-anchor="end" style="font-size:10px;font-family:Microsoft YaHei;" y="6" transform="translate(632 57.1146)" fill="#999">5.21%</text>
<path d="M-36 -12l36 0l0 24l-36 0Z" transform="translate(632 88.2146)" fill="none"></path>
<text dominant-baseline="central" text-anchor="end" style="font: normal normal 12px Microsoft YaHei" y="-6" transform="translate(632 88.2146)" fill="#333" stroke="rgb(255,255,255)" stroke-width="2" paint-order="stroke" stroke-miterlimit="2">肾内科</text>
<text dominant-baseline="central" text-anchor="end" style="font-size:10px;font-family:Microsoft YaHei;" y="6" transform="translate(632 88.2146)" fill="#999">4.85%</text>
<path d="M-36 -12l36 0l0 24l-36 0Z" transform="translate(632 119.3146)" fill="none"></path>
<text dominant-baseline="central" text-anchor="end" style="font: normal normal 12px Microsoft YaHei" y="-6" transform="translate(632 119.3146)" fill="#333" stroke="rgb(255,255,255)" stroke-width="2" paint-order="stroke" stroke-miterlimit="2">精神科</text>
<text dominant-baseline="central" text-anchor="end" style="font-size:10px;font-family:Microsoft YaHei;" y="6" transform="translate(632 119.3146)" fill="#999">4.8%</text>
<path d="M-60 -12l60 0l0 24l-60 0Z" transform="translate(632 155.4066)" fill="none"></path>
<text dominant-baseline="central" text-anchor="end" style="font: normal normal 12px Microsoft YaHei" y="-6" transform="translate(632 155.4066)" fill="#333" stroke="rgb(255,255,255)" stroke-width="2" paint-order="stroke" stroke-miterlimit="2">耳鼻咽喉科</text>
<text dominant-baseline="central" text-anchor="end" style="font-size:10px;font-family:Microsoft YaHei;" y="6" transform="translate(632 155.4066)" fill="#999">4.53%</text>
<path d="M-48 -12l48 0l0 24l-48 0Z" transform="translate(632 204.7288)" fill="none"></path>
<text dominant-baseline="central" text-anchor="end" style="font: normal normal 12px Microsoft YaHei" y="-6" transform="translate(632 204.7288)" fill="#333" stroke="rgb(255,255,255)" stroke-width="2" paint-order="stroke" stroke-miterlimit="2">普通外科</text>
<text dominant-baseline="central" text-anchor="end" style="font-size:10px;font-family:Microsoft YaHei;" y="6" transform="translate(632 204.7288)" fill="#999">4.51%</text>
<path d="M-28.8965 -12l28.8965 0l0 24l-28.8965 0Z" transform="translate(632 254.9017)" fill="none"></path>
<text dominant-baseline="central" text-anchor="end" style="font: normal normal 12px Microsoft YaHei" y="-6" transform="translate(632 254.9017)" fill="#333" stroke="rgb(255,255,255)" stroke-width="2" paint-order="stroke" stroke-miterlimit="2">儿科</text>
<text dominant-baseline="central" text-anchor="end" style="font-size:10px;font-family:Microsoft YaHei;" y="6" transform="translate(632 254.9017)" fill="#999">4.43%</text>
<path d="M-36 -12l36 0l0 24l-36 0Z" transform="translate(632 301.2982)" fill="none"></path>
<text dominant-baseline="central" text-anchor="end" style="font: normal normal 12px Microsoft YaHei" y="-6" transform="translate(632 301.2982)" fill="#333" stroke="rgb(255,255,255)" stroke-width="2" paint-order="stroke" stroke-miterlimit="2">消化科</text>
<text dominant-baseline="central" text-anchor="end" style="font-size:10px;font-family:Microsoft YaHei;" y="6" transform="translate(632 301.2982)" fill="#999">4.41%</text>
<path d="M-48 -12l48 0l0 24l-48 0Z" transform="translate(632 339.3415)" fill="none"></path>
<text dominant-baseline="central" text-anchor="end" style="font: normal normal 12px Microsoft YaHei" y="-6" transform="translate(632 339.3415)" fill="#333" stroke="rgb(255,255,255)" stroke-width="2" paint-order="stroke" stroke-miterlimit="2">泌尿外科</text>
<text dominant-baseline="central" text-anchor="end" style="font-size:10px;font-family:Microsoft YaHei;" y="6" transform="translate(632 339.3415)" fill="#999">4.19%</text>
<path d="M-48 -12l48 0l0 24l-48 0Z" transform="translate(632 370.4415)" fill="none"></path>
<text dominant-baseline="central" text-anchor="end" style="font: normal normal 12px Microsoft YaHei" y="-6" transform="translate(632 370.4415)" fill="#333" stroke="rgb(255,255,255)" stroke-width="2" paint-order="stroke" stroke-miterlimit="2">神经内科</text>
<text dominant-baseline="central" text-anchor="end" style="font-size:10px;font-family:Microsoft YaHei;" y="6" transform="translate(632 370.4415)" fill="#999">4.16%</text>
<path d="M-36 -12l36 0l0 24l-36 0Z" transform="translate(632 401.5415)" fill="none"></path>
<text dominant-baseline="central" text-anchor="end" style="font: normal normal 12px Microsoft YaHei" y="-6" transform="translate(632 401.5415)" fill="#333" stroke="rgb(255,255,255)" stroke-width="2" paint-order="stroke" stroke-miterlimit="2">呼吸科</text>
<text dominant-baseline="central" text-anchor="end" style="font-size:10px;font-family:Microsoft YaHei;" y="6" transform="translate(632 401.5415)" fill="#999">3.93%</text>
<path d="M0 -12l36 0l0 24l-36 0Z" transform="translate(52 423.45)" fill="none"></path>
<text dominant-baseline="central" text-anchor="start" style="font: normal normal 12px Microsoft YaHei" y="-6" transform="translate(52 423.45)" fill="#333" stroke="rgb(255,255,255)" stroke-width="2" paint-order="stroke" stroke-miterlimit="2">影像科</text>
<text dominant-baseline="central" text-anchor="start" style="font-size:10px;font-family:Microsoft YaHei;" y="6" transform="translate(52 423.45)" fill="#999">3.84%</text>
<path d="M0 -12l48 0l0 24l-48 0Z" transform="translate(52 392.35)" fill="none"></path>
<text dominant-baseline="central" text-anchor="start" style="font: normal normal 12px Microsoft YaHei" y="-6" transform="translate(52 392.35)" fill="#333" stroke="rgb(255,255,255)" stroke-width="2" paint-order="stroke" stroke-miterlimit="2">内分泌科</text>
<text dominant-baseline="central" text-anchor="start" style="font-size:10px;font-family:Microsoft YaHei;" y="6" transform="translate(52 392.35)" fill="#999">3.81%</text>
<path d="M0 -12l36 0l0 24l-36 0Z" transform="translate(52 361.25)" fill="none"></path>
<text dominant-baseline="central" text-anchor="start" style="font: normal normal 12px Microsoft YaHei" y="-6" transform="translate(52 361.25)" fill="#333" stroke="rgb(255,255,255)" stroke-width="2" paint-order="stroke" stroke-miterlimit="2">肝病科</text>
<text dominant-baseline="central" text-anchor="start" style="font-size:10px;font-family:Microsoft YaHei;" y="6" transform="translate(52 361.25)" fill="#999">3.74%</text>
<path d="M0 -12l28.8965 0l0 24l-28.8965 0Z" transform="translate(52 330.15)" fill="none"></path>
<text dominant-baseline="central" text-anchor="start" style="font: normal normal 12px Microsoft YaHei" y="-6" transform="translate(52 330.15)" fill="#333" stroke="rgb(255,255,255)" stroke-width="2" paint-order="stroke" stroke-miterlimit="2">骨科</text>
<text dominant-baseline="central" text-anchor="start" style="font-size:10px;font-family:Microsoft YaHei;" y="6" transform="translate(52 330.15)" fill="#999">3.67%</text>
<path d="M0 -12l36 0l0 24l-36 0Z" transform="translate(52 299.05)" fill="none"></path>
<text dominant-baseline="central" text-anchor="start" style="font: normal normal 12px Microsoft YaHei" y="-6" transform="translate(52 299.05)" fill="#333" stroke="rgb(255,255,255)" stroke-width="2" paint-order="stroke" stroke-miterlimit="2">检验科</text>
<text dominant-baseline="central" text-anchor="start" style="font-size:10px;font-family:Microsoft YaHei;" y="6" transform="translate(52 299.05)" fill="#999">3.59%</text>
<path d="M0 -12l48 0l0 24l-48 0Z" transform="translate(52 267.95)" fill="none"></path>
<text dominant-baseline="central" text-anchor="start" style="font: normal normal 12px Microsoft YaHei" y="-6" transform="translate(52 267.95)" fill="#333" stroke="rgb(255,255,255)" stroke-width="2" paint-order="stroke" stroke-miterlimit="2">神经外科</text>
<text dominant-baseline="central" text-anchor="start" style="font-size:10px;font-family:Microsoft YaHei;" y="6" transform="translate(52 267.95)" fill="#999">3.34%</text>
<path d="M0 -12l36 0l0 24l-36 0Z" transform="translate(52 236.85)" fill="none"></path>
<text dominant-baseline="central" text-anchor="start" style="font: normal normal 12px Microsoft YaHei" y="-6" transform="translate(52 236.85)" fill="#333" stroke="rgb(255,255,255)" stroke-width="2" paint-order="stroke" stroke-miterlimit="2">感染科</text>
<text dominant-baseline="central" text-anchor="start" style="font-size:10px;font-family:Microsoft YaHei;" y="6" transform="translate(52 236.85)" fill="#999">3.11%</text>
<path d="M0 -12l36 0l0 24l-36 0Z" transform="translate(52 205.75)" fill="none"></path>
<text dominant-baseline="central" text-anchor="start" style="font: normal normal 12px Microsoft YaHei" y="-6" transform="translate(52 205.75)" fill="#333" stroke="rgb(255,255,255)" stroke-width="2" paint-order="stroke" stroke-miterlimit="2">麻醉科</text>
<text dominant-baseline="central" text-anchor="start" style="font-size:10px;font-family:Microsoft YaHei;" y="6" transform="translate(52 205.75)" fill="#999">2.93%</text>
<path d="M0 -12l36 0l0 24l-36 0Z" transform="translate(52 174.65)" fill="none"></path>
<text dominant-baseline="central" text-anchor="start" style="font: normal normal 12px Microsoft YaHei" y="-6" transform="translate(52 174.65)" fill="#333" stroke="rgb(255,255,255)" stroke-width="2" paint-order="stroke" stroke-miterlimit="2">妇产科</text>
<text dominant-baseline="central" text-anchor="start" style="font-size:10px;font-family:Microsoft YaHei;" y="6" transform="translate(52 174.65)" fill="#999">2.92%</text>
<path d="M0 -12l48 0l0 24l-48 0Z" transform="translate(52 143.55)" fill="none"></path>
<text dominant-baseline="central" text-anchor="start" style="font: normal normal 12px Microsoft YaHei" y="-6" transform="translate(52 143.55)" fill="#333" stroke="rgb(255,255,255)" stroke-width="2" paint-order="stroke" stroke-miterlimit="2">胸心外科</text>
<text dominant-baseline="central" text-anchor="start" style="font-size:10px;font-family:Microsoft YaHei;" y="6" transform="translate(52 143.55)" fill="#999">2.7%</text>
<path d="M0 -12l36 0l0 24l-36 0Z" transform="translate(52 112.45)" fill="none"></path>
<text dominant-baseline="central" text-anchor="start" style="font: normal normal 12px Microsoft YaHei" y="-6" transform="translate(52 112.45)" fill="#333" stroke="rgb(255,255,255)" stroke-width="2" paint-order="stroke" stroke-miterlimit="2">血液科</text>
<text dominant-baseline="central" text-anchor="start" style="font-size:10px;font-family:Microsoft YaHei;" y="6" transform="translate(52 112.45)" fill="#999">2.62%</text>
<path d="M0 -12l48 0l0 24l-48 0Z" transform="translate(52 81.35)" fill="none"></path>
<text dominant-baseline="central" text-anchor="start" style="font: normal normal 12px Microsoft YaHei" y="-6" transform="translate(52 81.35)" fill="#333" stroke="rgb(255,255,255)" stroke-width="2" paint-order="stroke" stroke-miterlimit="2">整形外科</text>
<text dominant-baseline="central" text-anchor="start" style="font-size:10px;font-family:Microsoft YaHei;" y="6" transform="translate(52 81.35)" fill="#999">2.57%</text>
<path d="M0 -12l60 0l0 24l-60 0Z" transform="translate(52 50.25)" fill="none"></path>
<text dominant-baseline="central" text-anchor="start" style="font: normal normal 12px Microsoft YaHei" y="-6" transform="translate(52 50.25)" fill="#333" stroke="rgb(255,255,255)" stroke-width="2" paint-order="stroke" stroke-miterlimit="2">心血管内科</text>
<text dominant-baseline="central" text-anchor="start" style="font-size:10px;font-family:Microsoft YaHei;" y="6" transform="translate(52 50.25)" fill="#999">7.96%</text>
</svg>